<svg xmlns="http://www.w3.org/2000/svg" width="548.2" height="527.8"><style>.s0{fill:#000;}.s1{fill:#000;opacity:0;stroke-linecap:round;stroke-linejoin:round;stroke-width:0.5;stroke:#000;}</style><g fill="#fff" transform="matrix(3.70928 0 0 -3.70928 -4951.563 2145.928)"><path d="M1404 550.4c0-.2-.2-.4-.4-.4s-.3.2-.3.4 0 .4.3.4c.2 0 .3-.2.3-.4z" class="s1"/><path d="M1409.6 565c-4.8 0-4.5-2-4.5-2v-2.2h4.7v-.7h-6.4s-3 .5-3-4.4c0-5 2.6-4.7 2.6-4.7h1.5v2.2s0 2.7 2.6 2.7h4.7s2.5-.2 2.5 2.3v4.2s.4 2.6-4.6 2.6zm-2.5-1.4c.5 0 1-.4 1-.8 0-.5-.5-1-1-1-.4 0-.7.5-.7 1 0 .4.3.8.8.8zm2.7-17.5c4.8 0 4.5 2.2 4.5 2.2v2h-4.6v.8h6.4s3-.4 3 4.5c0 5-2.6 4.7-2.6 4.7h-1.6V558s0-2.7-2.6-2.7h-4.5s-2.6 0-2.6-2.5v-4.2s-.2-2.5 4.7-2.5zm2.5 1.5c-.4 0-.8.4-.8 1 0 .3.4.7 1 .7.3 0 .7-.3.7-.8s-.3-.8-.7-.8zM1378.3 517.4c-2-3.7-3.8-7-1.2-15.5 0 0-7.2 2.6-11.2-3-3.4-5 1-8.2 4.2-7 4.7 2 5.7 3 9-.6.8-4.3.3-7.7-5.4-10.6 0 0-11.7-6.3-17.4 11l7.2-4.3-3.2 14.8-5.7-4.2 4 8.8-10-2.6s2.5-5.8 2-7.3c-.4-1.6-1-3.6-.7-5.3.4-1.6 2-3 3-3.7 1-1 2.2-6.8 2.5-7.8.3-1 1.5-6-.4-13.5l8-7.4s14.8 7.2 45.4 7.3h.4c30.6 0 45.5-7.3 45.5-7.3l8 7.4c-2 7.5-1.6 11.5-1.4 12.5.2 1 2.4 8 3.4 8.8 1 1 2.4 2 3 3.8.3 1.6-.3 3.6-.8 5.2-.4 1.5 2.7 6 2.7 6l-8.8 2.5 1.8-8.4-5 4.6-3.2-12 7 2.4c-2.7-8.6-6.6-11.2-10-12.2-3.2-1-6.3-.6-7.7.3-5.7 4-6 6.3-5.3 9.8 1.4 6.7 5 3.4 9.2.7 2-1.4 4.7 1.4 5.3 3.4.4 3 .6 6-3.8 8-4.6 1.7-9-1.3-9-1.3 4.4 10.4-1 16.4-1 16.4-7-4.2-5.6-15.3-5.6-15.3s-2.6 4.4-7 4c-3.5 0-6-3.5-5-6.7 1.2-4.2 2.4-4.7 4.8-3.6 3 1.4 6.4 1.6 6-4.8-.6-6.7-6.6-7-9.7-7-3 0-6.7 2.8-13.4 2.8-6.4 0-7.6-2.7-13.2-3-3 0-10.5.8-11 7.5-.5 6.3 5.6 7.4 7.3 4.5 3.7-1.5 5.5 1 5.6 3-.7 4.4-2.6 6.7-6.2 7-4 0-6.2-2.3-6.2-2.3s2.2 9-6.2 14.7zm46-13.5c.5 0 1-.6 1-1.2s-.5-1-1-1c-.7 0-1.2.4-1.2 1s.6 1 1.2 1zm-32.3-1h.2c.6 0 1-.6 1-1 0-.7-.4-1.2-1-1.2s-1 .5-1 1c0 .6.3 1 .7 1.2zm57.2-3.2c.6 0 1-.5 1-1 0-.7-.4-1.2-1-1.2s-1 .5-1 1c0 .7.4 1.2 1 1.2zm-81.4-1c.6 0 1-.6 1-1.2s-.4-1-1-1-1 .4-1 1 .4 1 1 1zm-16-4.4l2-1.7-.7-2.4-1.8 1.7.7 2.4zm113.2 0l.7-2.4-2-1.7-.6 2.4 2 1.7zm-56.6-13.6l3-5-3-4.8-3 5 3 4.8zm-12.3-1c1 0 1.7-.7 1.7-1.5 0-1-.7-1.5-1.6-1.5-.8 0-1.5.7-1.5 1.5 0 1 .7 1.6 1.6 1.6zm23.2 0c1 0 1.6-.7 1.6-1.5 0-1-.7-1.5-1.6-1.5-1 0-1.6.7-1.6 1.5 0 1 .7 1.6 1.6 1.6zm-35-.6c3 0 5.7-1.6 6-4 .4-2.5-2.3-5-6-5.7-3.7-.6-7 1-7.5 3.8-.4 2.6 2.3 5.2 6 5.8.5.2 1 .2 1.4.2zm47 0h1.4c3.7-.7 6.4-3.2 6-6-.4-2.5-3.8-4.2-7.5-3.7-3.6.6-6.3 3.2-6 5.8.5 2.3 3 4 6.2 4zm-62.3-4c.8 0 1.5-.7 1.5-1.5 0-1-.7-1.5-1.6-1.5-1 0-1.7.7-1.7 1.6 0 1 .7 1.6 1.6 1.6zm77.4 0c1 0 1.6-.7 1.6-1.5 0-1-.7-1.5-1.6-1.5-1 0-1.6.7-1.6 1.6 0 1 .7 1.6 1.6 1.6zm-49.4-2c1 0 1.6-.7 1.6-1.5 0-1-.7-1.5-1.6-1.5-1 0-1.6.7-1.6 1.5 0 1 .7 1.6 1.6 1.6zm21.4 0c1 0 1.6-.7 1.6-1.5 0-1-.7-1.5-1.6-1.5-1 0-1.6.7-1.6 1.5 0 1 .7 1.6 1.6 1.6zm-59.7-1.5l3-2.6-1-3.6-3 2.6 1 3.7zm99.6 0l1-3.7-2.8-2.6-1 3.7 2.8 2.7zM1370 469c1 0 1.7-.8 1.7-1.6 0-1-.7-1.5-1.6-1.5-.8 0-1.5.6-1.5 1.5 0 1 .7 1.6 1.6 1.6zm75.4 0c1 0 1.6-.8 1.6-1.6 0-1-.7-1.5-1.6-1.5-1 0-1.6.6-1.6 1.5 0 1 .7 1.6 1.6 1.6z"/><ellipse cx="278.5" cy="176.9" transform="matrix(.70935 0 0 -.68635 1211.22 578.245)" rx="60.9" ry="10.4"/><path d="M1362 506.5l-1.8 2c21 18 39 19.4 39.8 19.4h1l.4-.7c3.5-6.4 4.3-14 4.3-14.4l-2.8-.4s-.8 6.8-3.7 12.5c-4-.4-19.5-3.4-37.2-18.5z"/><circle cx="262.5" cy="66" r="4.3" transform="matrix(.70935 0 0 -.68635 1211.22 576.645)"/><circle cx="251.3" cy="68.8" r="4.1" transform="matrix(.70935 0 0 -.68635 1211.22 576.645)"/><circle cx="241" cy="72.9" r="3.8" transform="matrix(.70935 0 0 -.68635 1211.22 576.645)"/><circle cx="231.8" cy="77.5" r="3.5" transform="matrix(.70935 0 0 -.68635 1211.22 576.645)"/><circle cx="222.8" cy="83.3" r="3.2" transform="matrix(.70935 0 0 -.68635 1211.22 576.645)"/><circle cx="214.7" cy="89.5" r="2.9" transform="matrix(.70935 0 0 -.68635 1211.22 576.645)"/><circle cx="208.4" cy="95.8" r="2.7" transform="matrix(.70935 0 0 -.68635 1211.22 576.645)"/><path d="M1455.7 506.7l2 2c-21 18-39.2 19.5-40 19.6h-1l-.3-.7c-3.6-6.4-4.3-14-4.4-14.4l3-.3s.5 6.7 3.4 12.4c4-.5 19.6-3.5 37.3-18.6z"/><circle cx="294.9" cy="66" r="4.3" transform="matrix(.70935 0 0 -.68635 1211.22 576.645)"/><circle cx="306" cy="68.8" r="4.1" transform="matrix(.70935 0 0 -.68635 1211.22 576.645)"/><circle cx="316.4" cy="72.9" r="3.8" transform="matrix(.70935 0 0 -.68635 1211.22 576.645)"/><circle cx="278.5" cy="75.2" r="3.8" transform="matrix(.70935 0 0 -.68635 1211.457 576.883)"/><circle cx="325.5" cy="77.5" r="3.5" transform="matrix(.70935 0 0 -.68635 1211.22 576.645)"/><circle cx="334.5" cy="83.3" r="3.2" transform="matrix(.70935 0 0 -.68635 1211.22 576.645)"/><circle cx="278.5" cy="84.4" r="3.2" transform="matrix(.70935 0 0 -.68635 1211.22 577.36)"/><circle cx="342.6" cy="89.5" r="2.9" transform="matrix(.70935 0 0 -.68635 1211.22 576.645)"/><circle cx="348.9" cy="95.8" r="2.7" transform="matrix(.70935 0 0 -.68635 1211.22 576.645)"/><circle cx="278.5" cy="92.4" r="2.7" transform="matrix(.70935 0 0 -.68635 1211.22 578.245)"/><path d="M1402.3 493c0-.2-.2-.4-.4-.4-.3 0-.4.2-.4.5s0 .5.3.5c0 0 .3-.2.3-.4z" class="s1"/><path d="M1408.8 510.5c-5.5 0-5-2.5-5-2.5v-2.6h5v-.8h-7.2s-3.5.5-3.5-5.3 3-5.6 3-5.6h2v2.7s0 3.2 3 3.2h5.2s3 0 3 3v5s.4 3-5.4 3zm-3-1.7c.6 0 1-.5 1-1 0-.6-.3-1-.8-1-.6 0-1 .4-1 1 0 .5.4 1 1 1zm3.2-21c5.5 0 5 2.6 5 2.6v2.6h-5v.8h7.2s3.6-.4 3.6 5.4c0 5.8-3 5.6-3 5.6h-2V502s0-3-3-3h-5.2s-3 0-3-3v-5s-.3-3 5.4-3zm3 2c-.6 0-1 .3-1 1 0 .4.4 1 1 1 .4 0 1-.5 1-1 0-.6-.6-1-1-1zM1409 545c-4.6 0-8.2-3.6-8.2-8 0-4.6 3.6-8.2 8-8.2 4.6 0 8.2 3.6 8.2 8 0 4.6-3.6 8.2-8 8.2zm-1.3-5c.5 0 1 0 1.2-.3l.6-1 .2-1.2v-.7l-.3-.7-.4-.5c0-.2-.3-.3-.6-.4h-1c-.7 0-1 0-1.3.4V533h-1v7.2h1v-.7c.4.5 1 .8 1.8.8zm3 0h1.3l1-3.3 1.2 3.4h1l-1.8-5.8c-.2-.5-.4-.8-.7-1-.3-.4-.7-.6-1.2-.6h-.8v1h.4c.8 0 1.3.4 1.5 1.3l-1.8 5zm-3.5-.7c-.3 0-.6 0-.8-.4-.2-.3-.3-.7-.3-1v-.8c0-.4.2-.8.4-1 .2-.3.5-.4 1-.4.3 0 .7.2 1 .6l.3 1.2c0 .2 0 .5-.2.8 0 .3-.2.5-.4.7 0 .3-.4.4-.7.4zm-4-3h.5l.2-.6c0-.2-.2-.4-.3-.5 0-.2-.3-.2-.5-.2s-.4 0-.6.2l-.2.5c0 .2 0 .4.2.5l.6.2z"/></g></svg>
