<svg xmlns:svg="http://www.w3.org/2000/svg" xmlns="http://www.w3.org/2000/svg" width="548.2" height="527.8" version="1.1"><style>.s0{fill:#000;}.s1{fill:#000;opacity:0;stroke-linecap:round;stroke-linejoin:round;stroke-width:0.5;stroke:#000;}</style><g transform="translate(-83.770108,-246.71368)"><g transform="matrix(3.7092829,0,0,-3.7092829,-4867.7932,2392.6414)" fill="#fff"><g transform="matrix(0.21336965,0,0,0.21608081,1123.2093,429.09907)" fill="#fff"><path d="m1644.5 412c0 1.2-0.8 2.2-1.8 2.2-1 0-1.8-1-1.8-2.2 0-1.2 0.8-2.2 1.8-2.2 1 0 1.8 1 1.8 2.2z" transform="matrix(0.8,0,0,-0.8,0,890.89741)" class="s1"/><path d="m1342.2 629.2c-22.4 0-21-9.7-21-9.7l0-10.1 21.4 0 0-3-29.9 0c0 0-14.3 1.6-14.3-21 0-22.6 12.5-21.8 12.5-21.8l7.5 0 0 10.5c0 0-0.4 12.5 12.3 12.5 12.7 0 21.2 0 21.2 0 0 0 11.9-0.2 11.9 11.5 0 11.7 0 19.4 0 19.4 0 0 1.8 11.7-21.6 11.7zm-11.8-6.8c2.1 0 3.9-1.7 3.9-3.8 0-2.1-1.7-3.8-3.8-3.8-2.1 0-3.8 1.7-3.8 3.9 0 2.1 1.7 3.9 3.9 3.9zM1342.8 541.3c22.4 0 21 9.7 21 9.7l0 10.1-21.4 0 0 3 29.9 0c0 0 14.4-1.6 14.4 21 0 22.6-12.5 21.8-12.5 21.8l-7.5 0 0-10.5c0 0 0.4-12.5-12.3-12.5-12.7 0-21.2 0-21.2 0 0 0-11.9 0.2-11.9-11.5 0-11.7 0-19.4 0-19.4 0 0-1.8-11.7 21.6-11.7zm11.8 6.8c-2.1 0-3.8 1.7-3.8 3.9 0 2.1 1.7 3.9 3.9 3.9 2.1 0 3.9-1.7 3.9-3.8 0-2.1-1.7-3.8-3.8-3.8z" fill="#fff"/></g><path d="m1378.3 517.4c-2-3.7-3.8-7-1.2-15.5 0 0-7.3 2.7-11.3-3-3.4-4.9 1-8.1 4.2-6.8 4.7 2 5.7 3 9.1-0.7 0.7-4.3 0.2-7.7-5.5-10.6 0 0-11.7-6.3-17.4 10.9l7.2-4.2-3.2 14.8-5.7-4.2 3.9 8.7-9.9-2.6c0 0 2.5-5.8 2-7.3-0.4-1.5-1.1-3.5-0.7-5.2 0.4-1.6 1.9-2.9 2.9-3.7 1-0.9 2.3-6.8 2.6-7.8 0.3-1 1.5-5.9-0.4-13.5l8-7.4c0 0 14.9 7.2 45.5 7.3l0.4 0c30.6-0.1 45.5-7.3 45.5-7.3l8 7.4c-1.9 7.5-1.6 11.5-1.4 12.5 0.3 1 2.5 7.9 3.5 8.8 1 0.9 2.4 2.1 2.9 3.8 0.4 1.6-0.2 3.6-0.7 5.2-0.4 1.5 2.7 5.9 2.7 5.9l-8.8 2.6 1.8-8.4-5 4.5-3.2-12.1 7 2.5c-2.8-8.6-6.7-11.2-10-12.2-3.3-1-6.4-0.6-7.8 0.3-5.7 3.9-6.1 6.2-5.3 9.7 1.4 6.7 5.1 3.4 9.2 0.7 2.1-1.4 4.7 1.4 5.3 3.4 0.4 3.2 0.6 6.2-3.8 8-4.6 1.8-9.1-1.2-9.1-1.2 4.5 10.4-1 16.4-1 16.4-7-4.3-5.5-15.4-5.5-15.4 0 0-2.7 4.4-7 4.1-3.6-0.2-6.2-3.6-5.2-6.8 1.3-4.2 2.5-4.7 4.9-3.6 3.1 1.4 6.4 1.6 5.9-4.8-0.5-6.7-6.5-7.1-9.6-7.1-3.2 0-6.8 2.9-13.5 2.9-6.4 0.1-7.6-2.7-13.2-2.9-3.1 0-10.5 0.7-11 7.4-0.5 6.4 5.6 7.5 7.3 4.6 3.7-1.5 5.5 1.1 5.6 2.9-0.7 4.5-2.6 6.8-6.2 7-4.2 0.2-6.3-2.2-6.3-2.2 0 0 2.2 9-6.2 14.7zm45.9-13.5c0.6 0 1.1-0.5 1.1-1.1 0-0.6-0.5-1.1-1.1-1.1-0.6 0-1.1 0.5-1.1 1.1 0 0.6 0.5 1.1 1.1 1.1zm-32.2-1c0.1 0 0.2 0 0.2 0 0.6 0 1.1-0.5 1.1-1 0-0.6-0.5-1.1-1.1-1.1-0.6 0-1.1 0.5-1.1 1.1 0 0.5 0.4 1 0.8 1.1zm57.2-3.1c0.6 0 1.1-0.5 1.1-1.1 0-0.6-0.5-1.1-1.1-1.1-0.6 0-1.1 0.5-1.1 1.1 0 0.6 0.5 1.1 1.1 1.1zm-81.4-1.1c0.6 0 1.1-0.5 1.1-1.1 0-0.6-0.5-1.1-1.1-1.1-0.6 0-1.1 0.5-1.1 1.1 0 0.6 0.5 1.1 1.1 1.1zm-15.9-4.3 1.9-1.7-0.7-2.4-1.9 1.7 0.7 2.4zm113.1 0 0.7-2.4-1.9-1.7-0.7 2.4 1.9 1.7zm-56.6-13.6 3.1-4.9-3-4.9-3.1 4.9 3 4.9zm-12.3-1c0.9 0 1.6-0.7 1.6-1.5 0-0.9-0.7-1.5-1.6-1.5-0.9 0-1.6 0.7-1.6 1.5 0 0.9 0.7 1.6 1.6 1.6zm23.1 0c0.9 0 1.6-0.7 1.6-1.5 0-0.9-0.7-1.5-1.6-1.5-0.9 0-1.6 0.7-1.6 1.5 0 0.9 0.7 1.6 1.6 1.6zm-35.1-0.6c3.1 0 5.8-1.6 6.1-3.9 0.4-2.6-2.3-5.2-6-5.8-3.7-0.6-7.1 1.1-7.5 3.8-0.4 2.6 2.3 5.2 6 5.8 0.5 0.1 0.9 0.1 1.4 0.1zm47.1 0c0.4 0 0.9-0.1 1.4-0.1 3.7-0.6 6.4-3.1 6-5.8-0.4-2.6-3.8-4.3-7.5-3.8-3.7 0.6-6.4 3.2-6 5.8 0.4 2.3 3 3.9 6.1 3.9zm-62.3-4c0.9 0 1.6-0.7 1.6-1.5 0-0.9-0.7-1.5-1.6-1.5-0.9 0-1.6 0.7-1.6 1.6 0 0.9 0.7 1.6 1.6 1.6zm77.5 0c0.9 0 1.6-0.7 1.6-1.5 0-0.9-0.7-1.5-1.6-1.5-0.9 0-1.6 0.7-1.6 1.6 0 0.9 0.7 1.6 1.6 1.6zm-49.4-2c0.9 0 1.6-0.7 1.6-1.5 0-0.9-0.7-1.5-1.6-1.5-0.9 0-1.6 0.7-1.6 1.5 0 0.9 0.7 1.6 1.6 1.6zm21.4 0c0.9 0 1.6-0.7 1.6-1.5 0-0.9-0.7-1.5-1.6-1.5-0.9 0-1.6 0.7-1.6 1.5 0 0.9 0.7 1.6 1.6 1.6zm-59.7-1.5 2.9-2.6-1-3.7-2.9 2.6 1.1 3.7zm99.6 0 1.1-3.7-2.9-2.6-1.1 3.7 2.9 2.6zm-88.2-2.8c0.9 0 1.6-0.7 1.6-1.5 0-0.9-0.7-1.5-1.6-1.5-0.9 0-1.6 0.7-1.6 1.6 0 0.9 0.7 1.6 1.6 1.6zm75.3 0c0.9 0 1.6-0.7 1.6-1.5 0-0.9-0.7-1.5-1.6-1.5-0.9 0-1.6 0.7-1.6 1.6 0 0.9 0.7 1.6 1.6 1.6z" fill="#fff"/><ellipse transform="matrix(0.70934644,0,0,-0.68635065,1211.2188,578.24511)" cx="278.5" cy="176.9" rx="60.9" ry="10.4" d="m 339.42301,176.875 c 0,5.72995 -27.25601,10.375 -60.878,10.375 -33.62199,0 -60.87799,-4.64505 -60.87799,-10.375 0,-5.72995 27.256,-10.375 60.87799,-10.375 33.62199,0 60.878,4.64505 60.878,10.375 z" fill="#fff"/><g transform="matrix(0.70934644,0,0,-0.68635065,1211.2188,577.29212)" fill="#fff"><path d="m212.7 103.2-2.7-3c29.7-26.3 55.1-28.3 56.2-28.3l1.3-0.1 0.6 1.1c5 9.3 6 20.5 6.1 20.9l-4 0.4c0-0.1-0.9-9.9-5-18.2-5.5 0.8-27.6 5.1-52.5 27.2l0 0z" fill="#fff"/></g><circle transform="matrix(0.70934644,0,0,-0.68635065,1211.2188,576.64511)" cx="262.5" cy="66" r="4.3" d="m 266.833,66 c 0,2.39305 -1.93995,4.333 -4.333,4.333 -2.39305,0 -4.333,-1.93995 -4.333,-4.333 0,-2.39305 1.93995,-4.333 4.333,-4.333 2.39305,0 4.333,1.93995 4.333,4.333 z" fill="#fff"/><circle transform="matrix(0.70934644,0,0,-0.68635065,1211.2188,576.64511)" cx="251.3" cy="68.8" r="4.1" d="m 255.389,68.834 c 0,2.239514 -1.81549,4.054999 -4.055,4.054999 -2.23951,0 -4.055,-1.815485 -4.055,-4.054999 0,-2.239515 1.81549,-4.055 4.055,-4.055 2.23951,0 4.055,1.815485 4.055,4.055 z" fill="#fff"/><circle transform="matrix(0.70934644,0,0,-0.68635065,1211.2188,576.64511)" cx="241" cy="72.9" r="3.8" d="m 244.77901,72.889999 c 0,2.086532 -1.69147,3.778001 -3.778,3.778001 -2.08653,0 -3.778,-1.691469 -3.778,-3.778001 0,-2.086531 1.69147,-3.778 3.778,-3.778 2.08653,0 3.778,1.691469 3.778,3.778 z" fill="#fff"/><circle transform="matrix(0.70934644,0,0,-0.68635065,1211.2188,576.64511)" cx="231.8" cy="77.5" r="3.5" d="m 235.33299,77.500999 c 0,1.932997 -1.567,3.5 -3.5,3.5 -1.93299,0 -3.5,-1.567003 -3.5,-3.5 0,-1.932996 1.56701,-3.5 3.5,-3.5 1.933,0 3.5,1.567004 3.5,3.5 z" fill="#fff"/><circle transform="matrix(0.70934644,0,0,-0.68635065,1211.2188,576.64511)" cx="222.8" cy="83.3" r="3.2" d="m 226.056,83.333 c 0,1.779462 -1.44254,3.222 -3.222,3.222 -1.77946,0 -3.222,-1.442538 -3.222,-3.222 0,-1.779461 1.44254,-3.222 3.222,-3.222 1.77946,0 3.222,1.442539 3.222,3.222 z" fill="#fff"/><circle transform="matrix(0.70934644,0,0,-0.68635065,1211.2188,576.64511)" cx="214.7" cy="89.5" r="2.9" d="m 217.667,89.5 c 0,1.626479 -1.31852,2.945 -2.945,2.945 -1.62648,0 -2.945,-1.318521 -2.945,-2.945 0,-1.626479 1.31852,-2.945 2.945,-2.945 1.62648,0 2.945,1.318521 2.945,2.945 z" fill="#fff"/><circle transform="matrix(0.70934644,0,0,-0.68635065,1211.2188,576.64511)" cx="208.4" cy="95.8" r="2.7" d="m 211.111,95.834 c 0,1.472943 -1.19406,2.667 -2.667,2.667 -1.47294,0 -2.667,-1.194057 -2.667,-2.667 0,-1.472944 1.19406,-2.667 2.667,-2.667 1.47294,0 2.667,1.194056 2.667,2.667 z" fill="#fff"/><g transform="matrix(0.70934644,0,0,-0.68635065,1211.2188,577.53037)" fill="#fff"><path d="m344.7 103.2 2.7-3C317.7 73.9 292.2 71.9 291.1 71.8l-1.3-0.1-0.6 1.1c-5 9.3-6 20.5-6.1 20.9l4 0.4c0-0.1 0.9-9.9 5-18.2 5.5 0.8 27.6 5.1 52.5 27.2l0 0z" fill="#fff"/></g><circle transform="matrix(0.70934644,0,0,-0.68635065,1211.2188,576.64511)" cx="294.9" cy="66" r="4.3" d="m 299.18401,66 c 0,2.39305 -1.93995,4.333 -4.333,4.333 -2.39305,0 -4.333,-1.93995 -4.333,-4.333 0,-2.39305 1.93995,-4.333 4.333,-4.333 2.39305,0 4.333,1.93995 4.333,4.333 z" fill="#fff"/><circle transform="matrix(0.70934644,0,0,-0.68635065,1211.2188,576.64511)" cx="306" cy="68.8" r="4.1" d="m 310.073,68.834 c 0,2.240067 -1.81593,4.056 -4.056,4.056 -2.24007,0 -4.056,-1.815933 -4.056,-4.056 0,-2.240067 1.81593,-4.056001 4.056,-4.056001 2.24007,0 4.056,1.815934 4.056,4.056001 z" fill="#fff"/><circle transform="matrix(0.70934644,0,0,-0.68635065,1211.2188,576.64511)" cx="316.4" cy="72.9" r="3.8" d="m 320.12701,72.889999 c 0,2.08598 -1.69102,3.777 -3.777,3.777 -2.08598,0 -3.777,-1.69102 -3.777,-3.777 0,-2.085979 1.69102,-3.777 3.777,-3.777 2.08598,0 3.777,1.691021 3.777,3.777 z" fill="#fff"/><circle transform="matrix(0.70934644,0,0,-0.68635065,1211.4571,576.88336)" cx="278.5" cy="75.2" r="3.8" d="m 282.31499,75.160004 c 0,2.085979 -1.69102,3.777 -3.777,3.777 -2.08598,0 -3.777,-1.691021 -3.777,-3.777 0,-2.08598 1.69102,-3.777 3.777,-3.777 2.08598,0 3.777,1.69102 3.777,3.777 z" fill="#fff"/><circle transform="matrix(0.70934644,0,0,-0.68635065,1211.2188,576.64511)" cx="325.5" cy="77.5" r="3.5" d="m 329.01801,77.500999 c 0,1.932997 -1.56701,3.5 -3.5,3.5 -1.933,0 -3.5,-1.567003 -3.5,-3.5 0,-1.932996 1.567,-3.5 3.5,-3.5 1.93299,0 3.5,1.567004 3.5,3.5 z" fill="#fff"/><circle transform="matrix(0.70934644,0,0,-0.68635065,1211.2188,576.64511)" cx="334.5" cy="83.3" r="3.2" d="m 337.739,83.333 c 0,1.779462 -1.44254,3.222 -3.222,3.222 -1.77946,0 -3.222,-1.442538 -3.222,-3.222 0,-1.779461 1.44254,-3.222 3.222,-3.222 1.77946,0 3.222,1.442539 3.222,3.222 z" fill="#fff"/><circle transform="matrix(0.70934644,0,0,-0.68635065,1211.2188,577.35985)" cx="278.5" cy="84.4" r="3.2" d="m 281.761,84.358002 c 0,1.779461 -1.44254,3.222 -3.222,3.222 -1.77946,0 -3.222,-1.442539 -3.222,-3.222 0,-1.779462 1.44254,-3.222 3.222,-3.222 1.77946,0 3.222,1.442538 3.222,3.222 z" fill="#fff"/><circle transform="matrix(0.70934644,0,0,-0.68635065,1211.2188,576.64511)" cx="342.6" cy="89.5" r="2.9" d="m 345.57199,89.5 c 0,1.625926 -1.31807,2.944 -2.944,2.944 -1.62593,0 -2.944,-1.318074 -2.944,-2.944 0,-1.625926 1.31807,-2.944 2.944,-2.944 1.62593,0 2.944,1.318074 2.944,2.944 z" fill="#fff"/><circle transform="matrix(0.70934644,0,0,-0.68635065,1211.2188,576.64511)" cx="348.9" cy="95.8" r="2.7" d="m 351.57401,95.834 c 0,1.472943 -1.19405,2.667 -2.667,2.667 -1.47294,0 -2.667,-1.194057 -2.667,-2.667 0,-1.472944 1.19406,-2.667 2.667,-2.667 1.47295,0 2.667,1.194056 2.667,2.667 z" fill="#fff"/><circle transform="matrix(0.70934644,0,0,-0.68635065,1211.2188,578.24511)" cx="278.5" cy="92.4" r="2.7" d="m 281.206,92.445 c 0,1.472943 -1.19406,2.667 -2.667,2.667 -1.47294,0 -2.667,-1.194057 -2.667,-2.667 0,-1.472944 1.19406,-2.667 2.667,-2.667 1.47294,0 2.667,1.194056 2.667,2.667 z" fill="#fff"/><g transform="matrix(0.2457341,0,0,0.25657872,1079.0045,348.77757)" fill="#fff"><path d="m1644.5 412c0 1.2-0.8 2.2-1.8 2.2-1 0-1.8-1-1.8-2.2 0-1.2 0.8-2.2 1.8-2.2 1 0 1.8 1 1.8 2.2z" transform="matrix(0.8,0,0,-0.8,0,892)" class="s1"/><path d="m1342.2 630.3c-22.4 0-21-9.7-21-9.7l0-10.1 21.4 0 0-3-29.9 0c0 0-14.3 1.6-14.3-21 0-22.6 12.5-21.8 12.5-21.8l7.5 0 0 10.5c0 0-0.4 12.5 12.3 12.5 12.7 0 21.2 0 21.2 0 0 0 11.9-0.2 11.9 11.5 0 11.7 0 19.4 0 19.4 0 0 1.8 11.7-21.6 11.7zm-11.8-6.8c2.1 0 3.9-1.7 3.9-3.8 0-2.1-1.7-3.8-3.8-3.8-2.1 0-3.8 1.7-3.8 3.9 0 2.1 1.7 3.9 3.9 3.9zM1342.8 542.4c22.4 0 21 9.7 21 9.7l0 10.1-21.4 0 0 3 29.9 0c0 0 14.4-1.6 14.4 21 0 22.6-12.5 21.8-12.5 21.8l-7.5 0 0-10.5c0 0 0.4-12.5-12.3-12.5-12.7 0-21.2 0-21.2 0 0 0-11.9 0.2-11.9-11.5 0-11.7 0-19.4 0-19.4 0 0-1.8-11.7 21.6-11.7zm11.8 6.8c-2.1 0-3.8 1.7-3.8 3.9 0 2.1 1.7 3.9 3.9 3.9 2.1 0 3.9-1.7 3.9-3.8 0-2.1-1.7-3.8-3.8-3.8z" fill="#fff"/></g><path d="m1408.9 545c-4.5 0-8.1-3.6-8.1-8.1 0-4.5 3.6-8.1 8.1-8.1 4.5 0 8.1 3.6 8.1 8.1 0 4.5-3.6 8.1-8.1 8.1zm-1.2-4.9c0.5 0 0.9-0.2 1.2-0.4 0.3-0.3 0.5-0.6 0.7-1 0.1-0.4 0.2-0.8 0.2-1.2 0-0.2 0-0.5-0.1-0.7 0-0.2-0.1-0.5-0.2-0.7-0.1-0.2-0.3-0.4-0.4-0.6-0.2-0.2-0.4-0.3-0.7-0.4-0.3-0.1-0.7-0.1-1.1-0.1-0.6 0-1 0.1-1.2 0.4l0-2.4-1.2 0 0 7.2 1.2 0 0-0.7c0.3 0.5 0.9 0.8 1.7 0.8zm3 0 1.3 0 1.1-3.4 1.1 3.4 1.1 0-1.9-5.9c-0.2-0.5-0.4-0.8-0.7-1.1-0.3-0.3-0.7-0.5-1.2-0.5l-0.8 0 0 1c0.2 0 0.3 0 0.4 0 0.7 0 1.2 0.4 1.4 1.3l-1.8 5.2zm-3.5-0.8c-0.3 0-0.6-0.1-0.8-0.4-0.2-0.2-0.3-0.6-0.3-1l0-0.7c0-0.4 0.1-0.8 0.3-1 0.2-0.3 0.5-0.4 0.9-0.4 0.4 0 0.8 0.2 1 0.6 0.2 0.4 0.4 0.8 0.4 1.2 0 0.2-0.1 0.5-0.2 0.8-0.1 0.3-0.2 0.5-0.4 0.7-0.2 0.2-0.5 0.3-0.8 0.3zm-4.1-2.9c0.2 0 0.4-0.1 0.6-0.2 0.1-0.1 0.2-0.3 0.2-0.5 0-0.2-0.1-0.4-0.2-0.5-0.1-0.2-0.3-0.2-0.5-0.2-0.2 0-0.4 0.1-0.6 0.2-0.1 0.2-0.2 0.3-0.2 0.5 0 0.2 0 0.4 0.2 0.5 0.1 0.1 0.3 0.2 0.6 0.2z" fill="#fff"/></g></g></svg>
